<?xml version="1.0" standalone="no"?>
<!DOCTYPE svg PUBLIC "-//W3C//DTD SVG 20010904//EN"
 "http://www.w3.org/TR/2001/REC-SVG-20010904/DTD/svg10.dtd">
<svg version="1.0" xmlns="http://www.w3.org/2000/svg"
 width="200.000000pt" height="200.000000pt" viewBox="0 0 200.000000 200.000000"
 preserveAspectRatio="xMidYMid meet">

<g transform="translate(0.000000,200.000000) scale(0.100000,-0.100000)"
fill="#000000" stroke="none">
<path d="M370 1626 c0 -2 31 -27 69 -55 93 -69 237 -222 302 -320 l53 -80 23
21 c13 12 23 27 23 34 0 24 -204 221 -309 298 -96 71 -161 112 -161 102z"/>
<path d="M1559 1589 c-101 -65 -243 -184 -324 -273 -41 -44 -75 -86 -75 -92 0
-6 11 -21 24 -33 l24 -23 16 29 c51 100 196 263 326 366 87 69 85 67 78 67 -3
0 -34 -19 -69 -41z"/>
<path d="M843 1455 c-60 -14 -103 -39 -103 -60 0 -28 112 -136 126 -122 3 3 1
14 -4 24 -6 10 -12 31 -13 47 l-4 29 158 1 c174 1 168 4 143 -66 -8 -21 -10
-38 -5 -38 5 0 34 24 65 54 72 70 71 91 -6 119 -68 24 -278 31 -357 12z"/>
<path d="M1340 1326 c0 -2 7 -7 16 -10 8 -3 12 -2 9 4 -6 10 -25 14 -25 6z"/>
<path d="M954 1237 c-17 -10 -5 -30 28 -48 22 -12 68 12 68 35 0 16 -72 26
-96 13z"/>
<path d="M840 1188 c-18 -18 -39 -48 -47 -67 -13 -31 -13 -36 11 -70 14 -20
26 -42 26 -48 0 -16 58 -56 70 -48 5 3 10 0 10 -8 0 -8 9 -22 19 -31 11 -10
25 -31 31 -47 16 -39 54 -40 74 -1 17 31 62 79 99 104 14 10 32 30 39 45 8 16
20 37 28 49 18 29 6 67 -36 114 -43 47 -73 51 -116 15 -16 -14 -39 -25 -50
-25 -11 0 -33 11 -50 25 -40 33 -68 31 -108 -7z m105 -197 c-3 -6 -11 -11 -17
-11 -6 0 -6 6 2 15 14 17 26 13 15 -4z"/>
<path d="M593 1195 c-17 -7 -39 -28 -48 -45 -37 -72 32 -180 170 -267 92 -58
134 -51 122 22 -3 19 -2 35 3 35 15 0 23 -22 22 -59 -1 -34 0 -35 13 -17 24
31 18 64 -12 80 -17 8 -54 55 -93 117 -38 61 -79 113 -99 126 -39 27 -37 26
-78 8z m82 -29 c38 -30 111 -165 121 -224 6 -37 4 -42 -13 -42 -34 0 -118 49
-166 95 -56 56 -74 103 -57 146 23 54 65 63 115 25z"/>
<path d="M1334 1190 c-42 -25 -66 -55 -117 -144 -28 -48 -59 -88 -82 -103 -38
-26 -40 -49 -9 -83 13 -13 14 -11 9 15 -4 20 -1 37 10 50 16 19 16 19 11 -17
-3 -27 0 -41 15 -54 18 -16 22 -15 81 14 159 79 248 218 188 295 -30 38 -71
49 -106 27z m80 -21 c30 -24 35 -72 11 -118 -29 -57 -126 -129 -199 -147 l-29
-7 6 47 c13 96 115 246 166 246 10 0 30 -9 45 -21z"/>
<path d="M740 1150 c0 -5 5 -10 10 -10 6 0 10 5 10 10 0 6 -4 10 -10 10 -5 0
-10 -4 -10 -10z"/>
<path d="M1235 1150 c4 -6 11 -8 16 -5 14 9 11 15 -7 15 -8 0 -12 -5 -9 -10z"/>
<path d="M952 740 c0 -14 2 -19 5 -12 2 6 2 18 0 25 -3 6 -5 1 -5 -13z"/>
<path d="M967 683 c-4 -3 -7 -15 -7 -25 0 -23 -8 -23 -34 0 -19 17 -19 17 -4
-6 9 -13 26 -31 38 -39 21 -15 22 -15 15 6 -4 12 -2 28 4 34 11 13 -1 42 -12
30z"/>
<path d="M1018 685 c-3 -6 -3 -27 0 -48 4 -37 5 -38 24 -20 11 10 29 32 41 48
l20 30 -31 -29 c-32 -30 -33 -29 -44 14 -3 7 -7 10 -10 5z"/>
<path d="M250 465 c9 -11 35 -15 102 -15 50 0 87 -4 84 -9 -3 -5 -51 -37 -106
-71 -55 -33 -100 -67 -100 -75 0 -13 29 -15 176 -15 136 0 175 3 172 13 -3 8
-38 13 -116 15 -62 1 -112 6 -112 10 0 4 44 32 97 62 104 60 126 77 118 91 -4
5 -78 9 -167 9 -141 0 -159 -2 -148 -15z"/>
<path d="M644 467 c-3 -8 -4 -52 -2 -98 l3 -84 158 0 c192 0 219 19 32 23
l-125 3 0 29 0 29 117 3 c82 2 118 7 121 16 3 9 -25 12 -117 12 l-121 0 0 28
0 27 122 0 c72 0 125 4 128 10 3 6 -52 11 -153 13 -125 2 -158 0 -163 -11z"/>
<path d="M1020 380 l0 -100 34 0 c32 0 35 3 38 33 3 31 4 32 56 35 49 3 57 0
93 -32 32 -30 47 -36 82 -36 l42 1 -40 34 -39 33 34 4 c34 3 35 4 38 51 5 76
3 77 -179 77 l-159 0 0 -100z m188 70 l72 0 0 -35 0 -35 -95 0 -95 0 0 41 c0
38 2 41 23 35 12 -3 55 -6 95 -6z"/>
<path d="M1430 380 l0 -100 178 2 177 3 3 38 c5 58 -8 67 -100 67 -59 0 -79
-3 -76 -12 3 -8 26 -14 56 -16 48 -3 52 -5 52 -28 l0 -24 -115 0 -115 0 0 73
0 72 107 -3 c80 -3 110 -8 118 -19 7 -9 23 -13 40 -11 24 2 30 8 30 28 l0 25
-177 3 -178 2 0 -100z"/>
</g>
</svg>
